<svg width="25" height="24" xmlns="http://www.w3.org/2000/svg"><path d="M13.707.753l2.82 5.736c.196.399.575.675 1.013.739l6.306.92c1.104.16 1.545 1.523.746 2.305l-4.563 4.464c-.317.31-.462.758-.386 1.196l1.076 6.304c.19 1.104-.965 1.946-1.953 1.425l-5.64-2.976a1.343 1.343 0 0 0-1.253 0l-5.639 2.976c-.988.521-2.142-.321-1.953-1.425l1.076-6.304a1.355 1.355 0 0 0-.386-1.196L.408 10.453c-.799-.783-.358-2.145.746-2.305l6.306-.92c.438-.064.817-.34 1.013-.74l2.82-5.735c.493-1.004 1.92-1.004 2.414 0z" fill="#FFD966" fill-rule="nonzero"/></svg>